<?xml version="1.0" encoding="UTF-8"?>
<!DOCTYPE svg PUBLIC "-//W3C//DTD SVG 1.1//EN" "http://www.w3.org/Graphics/SVG/1.1/DTD/svg11.dtd">
<!-- Creator: CorelDRAW 2020 (64-Bit) -->
<svg xmlns="http://www.w3.org/2000/svg" xml:space="preserve" width="625.799mm" height="633.799mm" version="1.1" style="shape-rendering:geometricPrecision; text-rendering:geometricPrecision; image-rendering:optimizeQuality; fill-rule:evenodd; clip-rule:evenodd"
viewBox="0 0 62579.9 63379.88"
 xmlns:xlink="http://www.w3.org/1999/xlink"
 xmlns:xodm="http://www.corel.com/coreldraw/odm/2003">
 <defs>
  <style type="text/css">
   <![CDATA[
    .str0 {stroke:#2B2A29;stroke-width:20;stroke-miterlimit:22.9256}
    .fil0 {fill:#1C1C1C}
    .fil1 {fill:#FFFDF3;fill-rule:nonzero}
    .fil2 {fill:#BDA93A;fill-rule:nonzero}
    .fil3 {fill:#25382A;fill-rule:nonzero}
   ]]>
  </style>
 </defs>
 <g id="Слой_x0020_1">
  <metadata id="CorelCorpID_0Corel-Layer"/>
  <rect class="fil0 str0" x="9.99" y="9.98" width="62559.91" height="63359.88"/>
  <polygon class="fil1" points="26955.48,28712.47 26955.48,24540.47 7975.22,10034.63 32220.63,10077.24 31228.03,5993.12 2551.53,5993.12 2582.49,10267.8 21232.82,24439.52 2535.1,24499.62 2546.1,28672.99 "/>
  <polygon class="fil1" points="54073.68,5987.12 34789.86,5985.75 34752.41,10123.52 44381.14,10117.3 44448.13,39166.87 48418.71,39156.09 48335.69,10112.61 54062.19,10156.07 "/>
  <path class="fil2" d="M28396.97 24476.96l9860.13 -10.9 -3025.72 -8469.95c-966.86,-2707.63 -1667.11,-4956.12 -2167.98,-6725.6 -415.03,2099.71 -890.33,4181.1 -1602.29,6213.95l-3064.14 8992.5zm-11917.66 21950.42l14482.43 -40434.26 4434.27 -8.57 12721.31 33168.4 -4903.93 -767.6 -3455.27 -9631.5 -12973.19 -1.55 -3036.5 8749.44 -7269.12 8925.64z"/>
  <path class="fil1" d="M17051.45 44501.4c-401.95,-1035.84 -661.04,-2558.68 -1322.04,-3301.46 -669.87,-749.06 -2291.81,-1654.66 -4850.04,-2743.31 -2023.85,-860.61 -3340.1,-1637.53 -3963.25,-2308.95 -616,-663.69 -929.01,-1671.62 -929.01,-3028.54 0,-105.5 5.78,-390.74 20.44,-862.15 13.07,-420.02 21.73,-6810.92 21.73,-6972.46l-3478.32 0.35c-8.26,1993.95 -4.02,7348.05 -2.92,8688.64 0,1290.24 259.09,2495.08 812.34,3560.5 557.71,1071.52 1249.26,1893.48 2070.56,2474.9 818.22,580.01 2218.91,1311.89 4209.28,2211.44 2705.29,1221.84 4404.5,2236.04 5116.46,3028.55 709.14,789.19 1070.24,5058.44 1070.24,6999.92l-13281.22 -2.16 1.46 4360.74 28720.88 0.53 0.13 -4359.11 -12610.68 0c0,-1581.75 147.06,-5139.03 997.33,-6136.23 845.94,-989.29 2416.92,-2209.71 4681.17,-3703.14l8194.52 -5405.72 0 -5292.62 -10066.93 6633.96c-3069.4,2023.71 -4877.78,4078.42 -5412.13,6156.32z"/>
  <path class="fil3" d="M35279.47 52963.7l8003.83 0c2160.61,0 3779.77,-465.18 4864.53,-1401.79 1076.02,-936.78 1619.11,-2338.58 1619.11,-4205.52 0,-1335.29 -310.18,-2444.03 -928.96,-3335.77 -620.24,-893.15 -1479.26,-1485.48 -2577.09,-1777.12 -1105.17,-293 -2984.92,-435.73 -5637.88,-435.73l-5343.54 0 0 11155.93zm-4031.7 -28517.69l22830.45 -21.82 5.79 4318.79 -18804.54 9.32 0 9367.96 7223.29 0c2667.44,0 4786.01,269.82 6362.95,817.1 1576.89,539.65 2836.27,1558.52 3787.05,3065.77 949.41,1499.62 1421.14,3245.73 1421.14,5239.99 0,1626.75 -337.79,3149.41 -1020.74,4559.02 -682.85,1415.97 -1696.25,2571.13 -3047.4,3462.87 -1343.99,893.15 -3645.95,1342.93 -6891.33,1342.93l-11846.39 0 -20.27 -32161.93z"/>
 </g>
</svg>
